<?xml version="1.0" encoding="utf-8"?><svg width="180" height="180" id="Layer_1" data-name="Layer 1" xmlns="http://www.w3.org/2000/svg" viewBox="0 0 180 180"><defs><style>.cls-1{fill:#49bce2;}.cls-2{fill:#fff;}</style></defs><title>exited-blue</title><polygon class="cls-1" points="-0.21 75.21 75.3 -0.29 37.11 -0.29 -0.21 37.03 -0.21 75.21"/><path class="cls-2" d="M15.19,50.14,5.77,40.72l5.39-5.39,1.25,1.25-3.9,3.9,2.6,2.61,2.72-2.72,1.25,1.26-2.71,2.71,3,3,4.14-4.13,1.33,1.33Z"/><path class="cls-2" d="M28,37.33l-1.53,1.53-5.21-1.45,1.45,5.21-1.53,1.54-2-7.34-7.4-2,1.51-1.52,5.19,1.43-1.49-5.12L18.46,28l2,7.22Z"/><path class="cls-2" d="M28.62,36.71,19.2,27.29l1.49-1.49,9.41,9.42Z"/><path class="cls-2" d="M22.57,26.43l-1.25-1.25,6.57-6.57,1.24,1.25L26.59,22.4l8.17,8.17-1.49,1.48-8.16-8.17Z"/><path class="cls-2" d="M38.08,27.24l-9.41-9.41,5.39-5.39,1.25,1.25-3.91,3.9L34,20.19l2.71-2.71L38,18.73l-2.72,2.72,3,3,4.14-4.14,1.34,1.34Z"/><path class="cls-2" d="M44.79,20.53l-9.42-9.41L37.59,8.9Q41,5.49,44.45,7.53a10.39,10.39,0,0,1,2.07,1.62A13.11,13.11,0,0,1,48,10.92a6.28,6.28,0,0,1,.8,1.72A4.76,4.76,0,0,1,49,14.46a6.18,6.18,0,0,1-2,3.86ZM45,17.8l.89-.89A3.31,3.31,0,0,0,47,14a5.71,5.71,0,0,0-1.76-3.15q-2.91-2.89-5.28-1.56A4.69,4.69,0,0,0,39,10l-.89.89Z"/></svg>