<?xml version="1.0" encoding="utf-8"?><svg id="Layer_1" data-name="Layer 1" xmlns="http://www.w3.org/2000/svg" viewBox="0 0 2500 390"><defs><style>.cls-1{fill:#0578be;}.cls-2{fill:#247f3f;}.cls-3{fill:#fdfdfd;}</style></defs><title>cleveland clinic white</title><path class="cls-1" d="M302.2,116.48v66.83h59A28.53,28.53,0,0,0,390,154.61V28.73A28.53,28.53,0,0,0,361.24,0H235.36a28.52,28.52,0,0,0-28.7,28.7V87.78H273.5A28.52,28.52,0,0,1,302.2,116.48Zm-214.45,0v66.83h-59A28.52,28.52,0,0,1,0,154.61V28.73A28.52,28.52,0,0,1,28.7,0H155a28.53,28.53,0,0,1,28.71,28.7V87.78H116.45A28.52,28.52,0,0,0,87.75,116.48Z"/><path class="cls-2" d="M87.75,273.93V206.69h-59A28.52,28.52,0,0,0,0,235.39V361.68a28.52,28.52,0,0,0,28.7,28.7H155a28.53,28.53,0,0,0,28.71-28.7V302.22H116.45a28.44,28.44,0,0,1-28.7-28.29Zm214.45,0V206.69h59A28.53,28.53,0,0,1,390,235.39V361.68a28.53,28.53,0,0,1-28.71,28.7H235.36a28.52,28.52,0,0,1-28.7-28.7V302.22H273.5a28.44,28.44,0,0,0,28.7-28.29Z"/><path class="cls-3" d="M1071,294.84v-1.23m-424-59c-6.56,44.28-36.08,70.94-80.78,70.94-61.09,0-88.57-56.59-88.57-110.3,0-54.13,27.48-110.72,88.57-110.72,44.29,0,73.4,25.43,80.78,70.94l-41,5.33c-4.1-22.14-13.95-42.64-39.78-42.64-36.9,0-44.28,49.2-44.28,76.67s7.38,76.68,44.28,76.68c25.83,0,35.68-20.09,40.19-42.23L647,234.57Zm25-146.79h41V302.22h-41ZM832.79,209.15c0-17.23-7-34.45-26.25-34.45-18.45,0-25.83,18-26.65,34.45Zm-54.54,25.42c-1.23,18.86,9.43,40.59,30.34,40.59,13.13,0,21.33-8.61,25.84-22.55l38.13,4.51c-8.61,30.75-38.13,48-67.66,48-45.1,0-67.65-39.78-67.65-80.37,0-41,22.55-80.37,67.65-80.37,39,0,68.48,18.45,67.66,90.21Zm344.43-25.42c0-17.23-7-34.45-26.65-34.45-18.45,0-25.83,18-26.65,34.45Zm-54.12,25.42c-1.23,18.86,9.43,40.59,30.34,40.59,13.12,0,21.32-8.61,25.83-22.55l38.14,4.51c-8.61,30.75-38.14,48-67.66,48-45.1,0-67.66-39.78-67.66-80.37,0-41,22.56-80.37,67.66-80.37,39,0,68.48,18.45,67.66,90.21Zm-94.72,67.65H930.79l-48-154.17h42.65l27.06,114h.41l26.65-114h41m169.76-60.27h41V302.22h-41Zm155,143.92c-16.81,2.87-50,4.51-50,27.47,0,9,4.51,16.4,13.94,16.4,16.81,0,28.29-9.84,36.08-20.09V231.7Zm2.46,56.17c-15.17,10.66-24.6,17.64-43.87,17.64-26.65,0-48.38-18.05-48.38-45.52,0-43.46,57.4-52.48,90.2-55.76,2.87-21.33-4.51-29.12-19.68-29.12-13.12,0-22.14,5.74-24.6,19.27l-39-6.15c9-32.8,31.16-43.46,63.55-43.46,41.42,0,60.69,19.68,60.69,48.79v76.68c0,11.07.41,22.14,5.33,32.39h-39.37a58.73,58.73,0,0,1-4.92-14.76ZM1459.73,164c13.13-10.66,29.12-19.27,45.93-19.27s40.59,10.25,40.59,48.38V302.63h-41V209.56c0-12.3.82-32-16.81-32-11.89,0-21.33,8.61-29.12,16.81V302.63h-41V148.05h41Zm507.63,70.53c-6.56,44.28-36.08,70.94-80.78,70.94-61.09,0-88.56-56.59-88.56-110.3,0-54.13,27.06-110.72,88.56-110.72,44.29,0,73.4,25.43,80.78,70.94l-40.59,5.33c-4.1-22.14-13.94-42.64-39.78-42.64-36.9,0-44.28,49.2-44.28,76.67s7.38,76.68,44.28,76.68c25.84,0,35.68-20.09,39.78-42.23l40.59,5.33ZM1992,87.78h40.6V302.22H1992Zm115.63,214.44h-41V148.05h41Zm0-176.72h-41V88.19h41ZM2181.81,164c13.12-10.66,29.11-19.27,45.92-19.27s40.6,10.25,40.6,48.38V302.63h-41V209.56c0-12.3.83-32-16.81-32-11.89,0-21.32,8.61-29.11,16.81V302.63h-40.59V148.05h40.59l.41,16ZM2343,302.22h-41V148.05h41Zm0-176.72h-41V88.19h41Zm157,126.7c-6.56,32.39-29.93,53.31-64.38,53.31-45.1,0-67.65-39.78-67.65-80.37,0-41,22.55-80.37,67.65-80.37,34.45,0,57.82,20.91,64.38,53.31L2463.1,203c-2.87-12.31-7-28.3-27.48-28.3-22.14,0-25.83,31.17-25.83,50.44s3.69,50.43,25.83,50.43c20.51,0,23.79-13.94,27.48-27.88l36.9,4.51Zm-830.74,1.23c-6.15,9.43-14.35,17.63-26.24,17.63-24.6,0-28.29-29.93-28.29-48.38,0-17.22,4.51-45.93,27.47-45.93,11.89,0,20.09,8.2,27.06,16.81v59.87Zm40.6,21.32v-187h-41v75c-11.48-10.25-21.32-18.45-38.13-18.45-21.73.41-56.18,19.68-56.18,77.09,0,65.19,28.71,84.47,59.87,84.47,17.22,0,26.24-5.75,38.54-16.82a50.8,50.8,0,0,0,4.51,13.53h37.73c-4.1-9-4.92-18.45-5.33-27.88Z"/></svg>