<?xml version="1.0" encoding="utf-8"?><svg id="Layer_1" data-name="Layer 1" xmlns="http://www.w3.org/2000/svg" viewBox="0 0 512 512"><defs><style>.cls-1{fill:#fff;}</style></defs><title>returned</title><path class="cls-1" d="M23,472.69H65.2V234.9H23Zm53.7,23H11.51A11.51,11.51,0,0,1,0,484.19V223.4a11.51,11.51,0,0,1,11.51-11.51h65.2a11.51,11.51,0,0,1,11.5,11.51V484.19a11.51,11.51,0,0,1-11.5,11.51"/><path class="cls-1" d="M164.28,472.69h42.18v-303H164.28Zm53.69,23h-65.2a11.52,11.52,0,0,1-11.51-11.51v-326a11.52,11.52,0,0,1,11.51-11.52H218a11.51,11.51,0,0,1,11.5,11.52v326A11.51,11.51,0,0,1,218,495.7"/><path class="cls-1" d="M305.54,472.69h42.18V104.51H305.54Zm53.69,23H294a11.51,11.51,0,0,1-11.51-11.51V93A11.51,11.51,0,0,1,294,81.5h65.19A11.5,11.5,0,0,1,370.73,93V484.19a11.5,11.5,0,0,1-11.5,11.51"/><path class="cls-1" d="M446.81,472.69H489V39.31H446.81Zm53.68,23H435.3a11.5,11.5,0,0,1-11.5-11.51V27.81A11.5,11.5,0,0,1,435.3,16.3h65.19A11.51,11.51,0,0,1,512,27.81V484.19a11.51,11.51,0,0,1-11.51,11.51"/></svg>