<?xml version="1.0" encoding="utf-8"?><svg id="Layer_1" data-name="Layer 1" xmlns="http://www.w3.org/2000/svg" xmlns:xlink="http://www.w3.org/1999/xlink" viewBox="0 0 288 288"><defs><style>.cls-1{fill:none;}.cls-2{fill:#54c8e8;}.cls-3{clip-path:url(#clip-path);}.cls-4{fill:#65cce9;}.cls-5{fill:#fff;}</style><clipPath id="clip-path"><path class="cls-1" d="M3,144A141,141,0,1,0,144,3,141,141,0,0,0,3,144"/></clipPath></defs><title>team ltblue</title><path class="cls-2" d="M144,285A141,141,0,1,0,3,144,141,141,0,0,0,144,285"/><g class="cls-3"><path class="cls-4" d="M180,174.16a3.18,3.18,0,1,0-3.18-3.18,3.18,3.18,0,0,0,3.18,3.18"/><path class="cls-4" d="M198,174.16A3.18,3.18,0,1,0,194.8,171a3.18,3.18,0,0,0,3.18,3.18"/><path class="cls-4" d="M144,174.16a3.18,3.18,0,1,0-3.18-3.18,3.19,3.19,0,0,0,3.18,3.18"/><path class="cls-4" d="M162,174.16a3.18,3.18,0,1,0-3.18-3.18,3.19,3.19,0,0,0,3.18,3.18"/><path class="cls-4" d="M216,174.16a3.18,3.18,0,1,0-3.18-3.18,3.19,3.19,0,0,0,3.18,3.18"/><path class="cls-4" d="M234,174.16a3.18,3.18,0,1,0-3.18-3.18,3.19,3.19,0,0,0,3.18,3.18"/><path class="cls-4" d="M189,192.14a3.18,3.18,0,1,0-3.18-3.18,3.18,3.18,0,0,0,3.18,3.18"/><path class="cls-4" d="M207,192.14a3.18,3.18,0,1,0-3.18-3.18,3.18,3.18,0,0,0,3.18,3.18"/><path class="cls-4" d="M153,192.14a3.18,3.18,0,1,0-3.18-3.18,3.19,3.19,0,0,0,3.18,3.18"/><path class="cls-4" d="M171,192.14a3.18,3.18,0,1,0-3.18-3.18,3.18,3.18,0,0,0,3.18,3.18"/><path class="cls-4" d="M225,192.14a3.18,3.18,0,1,0-3.18-3.18,3.19,3.19,0,0,0,3.18,3.18"/><path class="cls-4" d="M242.94,192.14a3.18,3.18,0,1,0-3.18-3.18,3.18,3.18,0,0,0,3.18,3.18"/><path class="cls-4" d="M180,210.12a3.18,3.18,0,1,0-3.18-3.18,3.18,3.18,0,0,0,3.18,3.18"/><path class="cls-4" d="M198,210.12a3.18,3.18,0,1,0-3.18-3.18,3.18,3.18,0,0,0,3.18,3.18"/><path class="cls-4" d="M144,210.12a3.18,3.18,0,1,0-3.18-3.18,3.18,3.18,0,0,0,3.18,3.18"/><path class="cls-4" d="M162,210.12a3.18,3.18,0,1,0-3.18-3.18,3.18,3.18,0,0,0,3.18,3.18"/><path class="cls-4" d="M216,210.12a3.18,3.18,0,1,0-3.18-3.18,3.18,3.18,0,0,0,3.18,3.18"/><path class="cls-4" d="M234,210.12a3.18,3.18,0,1,0-3.18-3.18,3.18,3.18,0,0,0,3.18,3.18"/><path class="cls-4" d="M189,228.1a3.18,3.18,0,1,0-3.18-3.18A3.18,3.18,0,0,0,189,228.1"/><path class="cls-4" d="M207,228.1a3.18,3.18,0,1,0-3.18-3.18A3.18,3.18,0,0,0,207,228.1"/><path class="cls-4" d="M153,228.1a3.18,3.18,0,1,0-3.18-3.18A3.18,3.18,0,0,0,153,228.1"/><path class="cls-4" d="M171,228.1a3.18,3.18,0,1,0-3.18-3.18A3.18,3.18,0,0,0,171,228.1"/><path class="cls-4" d="M225,228.1a3.18,3.18,0,1,0-3.18-3.18A3.18,3.18,0,0,0,225,228.1"/><path class="cls-4" d="M242.94,228.1a3.18,3.18,0,1,0-3.18-3.18,3.18,3.18,0,0,0,3.18,3.18"/><path class="cls-4" d="M189,156.17a3.18,3.18,0,1,0-3.18-3.18,3.18,3.18,0,0,0,3.18,3.18"/><path class="cls-4" d="M207,156.17a3.18,3.18,0,1,0-3.18-3.18,3.18,3.18,0,0,0,3.18,3.18"/><path class="cls-4" d="M153,156.17a3.18,3.18,0,1,0-3.18-3.18,3.18,3.18,0,0,0,3.18,3.18"/><path class="cls-4" d="M171,156.17a3.18,3.18,0,1,0-3.18-3.18,3.18,3.18,0,0,0,3.18,3.18"/><path class="cls-4" d="M225,156.17a3.18,3.18,0,1,0-3.18-3.18,3.18,3.18,0,0,0,3.18,3.18"/><path class="cls-4" d="M242.94,156.17a3.18,3.18,0,1,0-3.18-3.18,3.18,3.18,0,0,0,3.18,3.18"/><path class="cls-4" d="M180,246.08a3.18,3.18,0,1,0-3.18-3.18,3.18,3.18,0,0,0,3.18,3.18"/><path class="cls-4" d="M198,246.08a3.18,3.18,0,1,0-3.18-3.18,3.18,3.18,0,0,0,3.18,3.18"/><path class="cls-4" d="M144,246.08a3.18,3.18,0,1,0-3.18-3.18,3.18,3.18,0,0,0,3.18,3.18"/><path class="cls-4" d="M162,246.08a3.18,3.18,0,1,0-3.18-3.18,3.18,3.18,0,0,0,3.18,3.18"/><path class="cls-4" d="M216,246.08a3.18,3.18,0,1,0-3.18-3.18,3.18,3.18,0,0,0,3.18,3.18"/><path class="cls-4" d="M234,246.08a3.18,3.18,0,1,0-3.18-3.18,3.18,3.18,0,0,0,3.18,3.18"/><path class="cls-4" d="M269.91,174.16a3.18,3.18,0,1,0-3.18-3.18,3.18,3.18,0,0,0,3.18,3.18"/><path class="cls-4" d="M251.93,174.16a3.18,3.18,0,1,0-3.18-3.18,3.18,3.18,0,0,0,3.18,3.18"/><path class="cls-4" d="M260.92,192.14a3.18,3.18,0,1,0-3.18-3.18,3.18,3.18,0,0,0,3.18,3.18"/><path class="cls-4" d="M251.93,210.12a3.18,3.18,0,1,0-3.18-3.18,3.18,3.18,0,0,0,3.18,3.18"/><path class="cls-4" d="M278.9,156.17a3.18,3.18,0,1,0-3.18-3.18,3.18,3.18,0,0,0,3.18,3.18"/><path class="cls-4" d="M260.92,156.17a3.18,3.18,0,1,0-3.18-3.18,3.18,3.18,0,0,0,3.18,3.18"/><path class="cls-4" d="M180,282.05a3.18,3.18,0,1,0-3.18-3.18,3.18,3.18,0,0,0,3.18,3.18"/><path class="cls-4" d="M144,282.05a3.18,3.18,0,1,0-3.18-3.18,3.18,3.18,0,0,0,3.18,3.18"/><path class="cls-4" d="M162,282.05a3.18,3.18,0,1,0-3.18-3.18,3.18,3.18,0,0,0,3.18,3.18"/><path class="cls-4" d="M189,264.07a3.18,3.18,0,1,0-3.18-3.18,3.18,3.18,0,0,0,3.18,3.18"/><path class="cls-4" d="M207,264.07a3.18,3.18,0,1,0-3.18-3.18,3.18,3.18,0,0,0,3.18,3.18"/><path class="cls-4" d="M153,264.07a3.18,3.18,0,1,0-3.18-3.18,3.19,3.19,0,0,0,3.18,3.18"/><path class="cls-4" d="M171,264.07a3.18,3.18,0,1,0-3.18-3.18,3.18,3.18,0,0,0,3.18,3.18"/><path class="cls-4" d="M18.16,174.16A3.18,3.18,0,1,0,15,171a3.19,3.19,0,0,0,3.18,3.18"/><path class="cls-4" d="M36.14,174.16A3.18,3.18,0,1,0,33,171a3.18,3.18,0,0,0,3.18,3.18"/><path class="cls-4" d="M54.12,174.16A3.18,3.18,0,1,0,50.94,171a3.18,3.18,0,0,0,3.18,3.18"/><path class="cls-4" d="M27.15,192.14A3.18,3.18,0,1,0,24,189a3.18,3.18,0,0,0,3.18,3.18"/><path class="cls-4" d="M45.13,192.14A3.18,3.18,0,1,0,42,189a3.18,3.18,0,0,0,3.18,3.18"/><path class="cls-4" d="M63.11,192.14A3.18,3.18,0,1,0,59.93,189a3.18,3.18,0,0,0,3.18,3.18"/><path class="cls-4" d="M36.14,210.12A3.18,3.18,0,1,0,33,206.94a3.18,3.18,0,0,0,3.18,3.18"/><path class="cls-4" d="M54.12,210.12a3.18,3.18,0,1,0-3.18-3.18,3.18,3.18,0,0,0,3.18,3.18"/><path class="cls-4" d="M45.13,228.1A3.18,3.18,0,1,0,42,224.92a3.18,3.18,0,0,0,3.18,3.18"/><path class="cls-4" d="M63.11,228.1a3.18,3.18,0,1,0-3.18-3.18,3.18,3.18,0,0,0,3.18,3.18"/><path class="cls-4" d="M9.17,156.17A3.18,3.18,0,1,0,6,153a3.18,3.18,0,0,0,3.18,3.18"/><path class="cls-4" d="M27.15,156.17A3.18,3.18,0,1,0,24,153a3.18,3.18,0,0,0,3.18,3.18"/><path class="cls-4" d="M45.13,156.17A3.18,3.18,0,1,0,42,153a3.18,3.18,0,0,0,3.18,3.18"/><path class="cls-4" d="M63.11,156.17A3.18,3.18,0,1,0,59.93,153a3.18,3.18,0,0,0,3.18,3.18"/><path class="cls-4" d="M54.12,246.08a3.18,3.18,0,1,0-3.18-3.18,3.18,3.18,0,0,0,3.18,3.18"/><path class="cls-4" d="M90.09,174.16A3.18,3.18,0,1,0,86.91,171a3.19,3.19,0,0,0,3.18,3.18"/><path class="cls-4" d="M108.07,174.16a3.18,3.18,0,1,0-3.18-3.18,3.18,3.18,0,0,0,3.18,3.18"/><path class="cls-4" d="M72.11,174.16A3.18,3.18,0,1,0,68.93,171a3.19,3.19,0,0,0,3.18,3.18"/><path class="cls-4" d="M126.05,174.16a3.18,3.18,0,1,0-3.18-3.18,3.18,3.18,0,0,0,3.18,3.18"/><path class="cls-4" d="M99.08,192.14A3.18,3.18,0,1,0,95.9,189a3.18,3.18,0,0,0,3.18,3.18"/><path class="cls-4" d="M117.06,192.14a3.18,3.18,0,1,0-3.18-3.18,3.18,3.18,0,0,0,3.18,3.18"/><path class="cls-4" d="M81.1,192.14A3.18,3.18,0,1,0,77.92,189a3.19,3.19,0,0,0,3.18,3.18"/><path class="cls-4" d="M135,192.14a3.18,3.18,0,1,0-3.18-3.18,3.18,3.18,0,0,0,3.18,3.18"/><path class="cls-4" d="M90.09,210.12a3.18,3.18,0,1,0-3.18-3.18,3.18,3.18,0,0,0,3.18,3.18"/><path class="cls-4" d="M108.07,210.12a3.18,3.18,0,1,0-3.18-3.18,3.18,3.18,0,0,0,3.18,3.18"/><path class="cls-4" d="M72.11,210.12a3.18,3.18,0,1,0-3.18-3.18,3.18,3.18,0,0,0,3.18,3.18"/><path class="cls-4" d="M126.05,210.12a3.18,3.18,0,1,0-3.18-3.18,3.18,3.18,0,0,0,3.18,3.18"/><path class="cls-4" d="M99.08,228.1a3.18,3.18,0,1,0-3.18-3.18,3.18,3.18,0,0,0,3.18,3.18"/><path class="cls-4" d="M117.06,228.1a3.18,3.18,0,1,0-3.18-3.18,3.18,3.18,0,0,0,3.18,3.18"/><path class="cls-4" d="M81.1,228.1a3.18,3.18,0,1,0-3.18-3.18,3.18,3.18,0,0,0,3.18,3.18"/><path class="cls-4" d="M135,228.1a3.18,3.18,0,1,0-3.18-3.18A3.18,3.18,0,0,0,135,228.1"/><path class="cls-4" d="M99.08,156.17A3.18,3.18,0,1,0,95.9,153a3.18,3.18,0,0,0,3.18,3.18"/><path class="cls-4" d="M117.06,156.17a3.18,3.18,0,1,0-3.18-3.18,3.18,3.18,0,0,0,3.18,3.18"/><path class="cls-4" d="M81.1,156.17A3.18,3.18,0,1,0,77.92,153a3.18,3.18,0,0,0,3.18,3.18"/><path class="cls-4" d="M135,156.17a3.18,3.18,0,1,0-3.18-3.18,3.18,3.18,0,0,0,3.18,3.18"/><path class="cls-4" d="M90.09,246.08a3.18,3.18,0,1,0-3.18-3.18,3.18,3.18,0,0,0,3.18,3.18"/><path class="cls-4" d="M108.07,246.08a3.18,3.18,0,1,0-3.18-3.18,3.18,3.18,0,0,0,3.18,3.18"/><path class="cls-4" d="M72.11,246.08a3.18,3.18,0,1,0-3.18-3.18,3.18,3.18,0,0,0,3.18,3.18"/><path class="cls-4" d="M126.05,246.08a3.18,3.18,0,1,0-3.18-3.18,3.18,3.18,0,0,0,3.18,3.18"/><path class="cls-4" d="M108.07,282.05a3.18,3.18,0,1,0-3.18-3.18,3.18,3.18,0,0,0,3.18,3.18"/><path class="cls-4" d="M126.05,282.05a3.18,3.18,0,1,0-3.18-3.18,3.18,3.18,0,0,0,3.18,3.18"/><path class="cls-4" d="M99.08,264.07a3.18,3.18,0,1,0-3.18-3.18,3.18,3.18,0,0,0,3.18,3.18"/><path class="cls-4" d="M117.06,264.07a3.18,3.18,0,1,0-3.18-3.18,3.18,3.18,0,0,0,3.18,3.18"/><path class="cls-4" d="M81.1,264.07a3.18,3.18,0,1,0-3.18-3.18,3.19,3.19,0,0,0,3.18,3.18"/><path class="cls-4" d="M135,264.07a3.18,3.18,0,1,0-3.18-3.18,3.18,3.18,0,0,0,3.18,3.18"/><path class="cls-4" d="M153,12.31a3.18,3.18,0,1,0-3.18-3.18A3.18,3.18,0,0,0,153,12.31"/><path class="cls-4" d="M171,12.31a3.18,3.18,0,1,0-3.18-3.18A3.18,3.18,0,0,0,171,12.31"/><path class="cls-4" d="M180,30.29a3.18,3.18,0,1,0-3.18-3.18A3.18,3.18,0,0,0,180,30.29"/><path class="cls-4" d="M198,30.29a3.18,3.18,0,1,0-3.18-3.18A3.18,3.18,0,0,0,198,30.29"/><path class="cls-4" d="M144,30.29a3.18,3.18,0,1,0-3.18-3.18A3.18,3.18,0,0,0,144,30.29"/><path class="cls-4" d="M162,30.29a3.18,3.18,0,1,0-3.18-3.18A3.18,3.18,0,0,0,162,30.29"/><path class="cls-4" d="M216,30.29a3.18,3.18,0,1,0-3.18-3.18A3.18,3.18,0,0,0,216,30.29"/><path class="cls-4" d="M180,66.26a3.18,3.18,0,1,0-3.18-3.18A3.18,3.18,0,0,0,180,66.26"/><path class="cls-4" d="M198,66.26a3.18,3.18,0,1,0-3.18-3.18A3.18,3.18,0,0,0,198,66.26"/><path class="cls-4" d="M144,66.26a3.18,3.18,0,1,0-3.18-3.18A3.18,3.18,0,0,0,144,66.26"/><path class="cls-4" d="M162,66.26a3.18,3.18,0,1,0-3.18-3.18A3.18,3.18,0,0,0,162,66.26"/><path class="cls-4" d="M216,66.26a3.18,3.18,0,1,0-3.18-3.18A3.18,3.18,0,0,0,216,66.26"/><path class="cls-4" d="M234,66.26a3.18,3.18,0,1,0-3.18-3.18A3.18,3.18,0,0,0,234,66.26"/><path class="cls-4" d="M189,84.24a3.18,3.18,0,1,0-3.18-3.18A3.18,3.18,0,0,0,189,84.24"/><path class="cls-4" d="M207,84.24a3.18,3.18,0,1,0-3.18-3.18A3.18,3.18,0,0,0,207,84.24"/><path class="cls-4" d="M153,84.24a3.18,3.18,0,1,0-3.18-3.18A3.18,3.18,0,0,0,153,84.24"/><path class="cls-4" d="M171,84.24a3.18,3.18,0,1,0-3.18-3.18A3.18,3.18,0,0,0,171,84.24"/><path class="cls-4" d="M225,84.24a3.18,3.18,0,1,0-3.18-3.18A3.18,3.18,0,0,0,225,84.24"/><path class="cls-4" d="M242.94,84.24a3.18,3.18,0,1,0-3.18-3.18,3.18,3.18,0,0,0,3.18,3.18"/><path class="cls-4" d="M180,102.22A3.18,3.18,0,1,0,176.82,99a3.18,3.18,0,0,0,3.18,3.18"/><path class="cls-4" d="M198,102.22A3.18,3.18,0,1,0,194.8,99a3.18,3.18,0,0,0,3.18,3.18"/><path class="cls-4" d="M144,102.22A3.18,3.18,0,1,0,140.86,99a3.18,3.18,0,0,0,3.18,3.18"/><path class="cls-4" d="M162,102.22A3.18,3.18,0,1,0,158.84,99a3.18,3.18,0,0,0,3.18,3.18"/><path class="cls-4" d="M216,102.22A3.18,3.18,0,1,0,212.79,99a3.18,3.18,0,0,0,3.18,3.18"/><path class="cls-4" d="M234,102.22A3.18,3.18,0,1,0,230.77,99a3.18,3.18,0,0,0,3.18,3.18"/><path class="cls-4" d="M189,120.21a3.18,3.18,0,1,0-3.18-3.18,3.18,3.18,0,0,0,3.18,3.18"/><path class="cls-4" d="M207,120.21a3.18,3.18,0,1,0-3.18-3.18,3.18,3.18,0,0,0,3.18,3.18"/><path class="cls-4" d="M153,120.21a3.18,3.18,0,1,0-3.18-3.18,3.19,3.19,0,0,0,3.18,3.18"/><path class="cls-4" d="M171,120.21a3.18,3.18,0,1,0-3.18-3.18,3.18,3.18,0,0,0,3.18,3.18"/><path class="cls-4" d="M225,120.21a3.18,3.18,0,1,0-3.18-3.18,3.19,3.19,0,0,0,3.18,3.18"/><path class="cls-4" d="M242.94,120.21a3.18,3.18,0,1,0-3.18-3.18,3.18,3.18,0,0,0,3.18,3.18"/><path class="cls-4" d="M189,48.28a3.18,3.18,0,1,0-3.18-3.18A3.18,3.18,0,0,0,189,48.28"/><path class="cls-4" d="M207,48.28a3.18,3.18,0,1,0-3.18-3.18A3.18,3.18,0,0,0,207,48.28"/><path class="cls-4" d="M153,48.28a3.18,3.18,0,1,0-3.18-3.18A3.19,3.19,0,0,0,153,48.28"/><path class="cls-4" d="M171,48.28a3.18,3.18,0,1,0-3.18-3.18A3.18,3.18,0,0,0,171,48.28"/><path class="cls-4" d="M225,48.28a3.18,3.18,0,1,0-3.18-3.18A3.19,3.19,0,0,0,225,48.28"/><path class="cls-4" d="M242.94,48.28a3.18,3.18,0,1,0-3.18-3.18,3.18,3.18,0,0,0,3.18,3.18"/><path class="cls-4" d="M180,138.19a3.18,3.18,0,1,0-3.18-3.18,3.18,3.18,0,0,0,3.18,3.18"/><path class="cls-4" d="M198,138.19A3.18,3.18,0,1,0,194.8,135a3.18,3.18,0,0,0,3.18,3.18"/><path class="cls-4" d="M144,138.19a3.18,3.18,0,1,0-3.18-3.18,3.18,3.18,0,0,0,3.18,3.18"/><path class="cls-4" d="M162,138.19a3.18,3.18,0,1,0-3.18-3.18,3.18,3.18,0,0,0,3.18,3.18"/><path class="cls-4" d="M216,138.19a3.18,3.18,0,1,0-3.18-3.18,3.18,3.18,0,0,0,3.18,3.18"/><path class="cls-4" d="M234,138.19a3.18,3.18,0,1,0-3.18-3.18,3.18,3.18,0,0,0,3.18,3.18"/><path class="cls-4" d="M251.93,66.26a3.18,3.18,0,1,0-3.18-3.18,3.18,3.18,0,0,0,3.18,3.18"/><path class="cls-4" d="M260.92,84.24a3.18,3.18,0,1,0-3.18-3.18,3.18,3.18,0,0,0,3.18,3.18"/><path class="cls-4" d="M269.91,102.22A3.18,3.18,0,1,0,266.73,99a3.18,3.18,0,0,0,3.18,3.18"/><path class="cls-4" d="M251.93,102.22A3.18,3.18,0,1,0,248.75,99a3.18,3.18,0,0,0,3.18,3.18"/><path class="cls-4" d="M278.9,120.21a3.18,3.18,0,1,0-3.18-3.18,3.18,3.18,0,0,0,3.18,3.18"/><path class="cls-4" d="M260.92,120.21a3.18,3.18,0,1,0-3.18-3.18,3.18,3.18,0,0,0,3.18,3.18"/><path class="cls-4" d="M269.91,138.19a3.18,3.18,0,1,0-3.18-3.18,3.18,3.18,0,0,0,3.18,3.18"/><path class="cls-4" d="M251.93,138.19a3.18,3.18,0,1,0-3.18-3.18,3.18,3.18,0,0,0,3.18,3.18"/><path class="cls-4" d="M117.06,12.31a3.18,3.18,0,1,0-3.18-3.18,3.18,3.18,0,0,0,3.18,3.18"/><path class="cls-4" d="M135,12.31a3.18,3.18,0,1,0-3.18-3.18A3.18,3.18,0,0,0,135,12.31"/><path class="cls-4" d="M90.09,30.29a3.18,3.18,0,1,0-3.18-3.18,3.18,3.18,0,0,0,3.18,3.18"/><path class="cls-4" d="M108.07,30.29a3.18,3.18,0,1,0-3.18-3.18,3.18,3.18,0,0,0,3.18,3.18"/><path class="cls-4" d="M72.11,30.29a3.18,3.18,0,1,0-3.18-3.18,3.18,3.18,0,0,0,3.18,3.18"/><path class="cls-4" d="M126.05,30.29a3.18,3.18,0,1,0-3.18-3.18,3.18,3.18,0,0,0,3.18,3.18"/><path class="cls-4" d="M36.14,66.26A3.18,3.18,0,1,0,33,63.08a3.18,3.18,0,0,0,3.18,3.18"/><path class="cls-4" d="M54.12,66.26a3.18,3.18,0,1,0-3.18-3.18,3.18,3.18,0,0,0,3.18,3.18"/><path class="cls-4" d="M27.15,84.24A3.18,3.18,0,1,0,24,81.06a3.18,3.18,0,0,0,3.18,3.18"/><path class="cls-4" d="M45.13,84.24A3.18,3.18,0,1,0,42,81.06a3.18,3.18,0,0,0,3.18,3.18"/><path class="cls-4" d="M63.11,84.24a3.18,3.18,0,1,0-3.18-3.18,3.18,3.18,0,0,0,3.18,3.18"/><path class="cls-4" d="M18.16,102.22A3.18,3.18,0,1,0,15,99a3.18,3.18,0,0,0,3.18,3.18"/><path class="cls-4" d="M36.14,102.22A3.18,3.18,0,1,0,33,99a3.18,3.18,0,0,0,3.18,3.18"/><path class="cls-4" d="M54.12,102.22A3.18,3.18,0,1,0,50.94,99a3.18,3.18,0,0,0,3.18,3.18"/><path class="cls-4" d="M9.17,120.21A3.18,3.18,0,1,0,6,117a3.19,3.19,0,0,0,3.18,3.18"/><path class="cls-4" d="M27.15,120.21A3.18,3.18,0,1,0,24,117a3.18,3.18,0,0,0,3.18,3.18"/><path class="cls-4" d="M45.13,120.21A3.18,3.18,0,1,0,42,117a3.18,3.18,0,0,0,3.18,3.18"/><path class="cls-4" d="M63.11,120.21A3.18,3.18,0,1,0,59.93,117a3.18,3.18,0,0,0,3.18,3.18"/><path class="cls-4" d="M45.13,48.28A3.18,3.18,0,1,0,42,45.1a3.18,3.18,0,0,0,3.18,3.18"/><path class="cls-4" d="M63.11,48.28a3.18,3.18,0,1,0-3.18-3.18,3.18,3.18,0,0,0,3.18,3.18"/><path class="cls-4" d="M18.16,138.19A3.18,3.18,0,1,0,15,135a3.18,3.18,0,0,0,3.18,3.18"/><path class="cls-4" d="M36.14,138.19A3.18,3.18,0,1,0,33,135a3.18,3.18,0,0,0,3.18,3.18"/><path class="cls-4" d="M54.12,138.19A3.18,3.18,0,1,0,50.94,135a3.18,3.18,0,0,0,3.18,3.18"/><path class="cls-4" d="M90.09,66.26a3.18,3.18,0,1,0-3.18-3.18,3.18,3.18,0,0,0,3.18,3.18"/><path class="cls-4" d="M108.07,66.26a3.18,3.18,0,1,0-3.18-3.18,3.18,3.18,0,0,0,3.18,3.18"/><path class="cls-4" d="M72.11,66.26a3.18,3.18,0,1,0-3.18-3.18,3.18,3.18,0,0,0,3.18,3.18"/><path class="cls-4" d="M126.05,66.26a3.18,3.18,0,1,0-3.18-3.18,3.18,3.18,0,0,0,3.18,3.18"/><path class="cls-4" d="M99.08,84.24a3.18,3.18,0,1,0-3.18-3.18,3.18,3.18,0,0,0,3.18,3.18"/><path class="cls-4" d="M117.06,84.24a3.18,3.18,0,1,0-3.18-3.18,3.18,3.18,0,0,0,3.18,3.18"/><path class="cls-4" d="M81.1,84.24a3.18,3.18,0,1,0-3.18-3.18,3.18,3.18,0,0,0,3.18,3.18"/><path class="cls-4" d="M135,84.24a3.18,3.18,0,1,0-3.18-3.18A3.18,3.18,0,0,0,135,84.24"/><path class="cls-4" d="M90.09,102.22A3.18,3.18,0,1,0,86.91,99a3.18,3.18,0,0,0,3.18,3.18"/><path class="cls-4" d="M108.07,102.22A3.18,3.18,0,1,0,104.89,99a3.18,3.18,0,0,0,3.18,3.18"/><path class="cls-4" d="M72.11,102.22A3.18,3.18,0,1,0,68.93,99a3.18,3.18,0,0,0,3.18,3.18"/><path class="cls-4" d="M126.05,102.22A3.18,3.18,0,1,0,122.87,99a3.18,3.18,0,0,0,3.18,3.18"/><path class="cls-4" d="M99.08,120.21A3.18,3.18,0,1,0,95.9,117a3.18,3.18,0,0,0,3.18,3.18"/><path class="cls-4" d="M117.06,120.21a3.18,3.18,0,1,0-3.18-3.18,3.18,3.18,0,0,0,3.18,3.18"/><path class="cls-4" d="M81.1,120.21A3.18,3.18,0,1,0,77.92,117a3.19,3.19,0,0,0,3.18,3.18"/><path class="cls-4" d="M135,120.21a3.18,3.18,0,1,0-3.18-3.18,3.18,3.18,0,0,0,3.18,3.18"/><path class="cls-4" d="M99.08,48.28A3.18,3.18,0,1,0,95.9,45.1a3.18,3.18,0,0,0,3.18,3.18"/><path class="cls-4" d="M117.06,48.28a3.18,3.18,0,1,0-3.18-3.18,3.18,3.18,0,0,0,3.18,3.18"/><path class="cls-4" d="M81.1,48.28a3.18,3.18,0,1,0-3.18-3.18,3.19,3.19,0,0,0,3.18,3.18"/><path class="cls-4" d="M135,48.28a3.18,3.18,0,1,0-3.18-3.18A3.18,3.18,0,0,0,135,48.28"/><path class="cls-4" d="M90.09,138.19A3.18,3.18,0,1,0,86.91,135a3.18,3.18,0,0,0,3.18,3.18"/><path class="cls-4" d="M108.07,138.19a3.18,3.18,0,1,0-3.18-3.18,3.18,3.18,0,0,0,3.18,3.18"/><path class="cls-4" d="M72.11,138.19A3.18,3.18,0,1,0,68.93,135a3.18,3.18,0,0,0,3.18,3.18"/><path class="cls-4" d="M126.05,138.19a3.18,3.18,0,1,0-3.18-3.18,3.18,3.18,0,0,0,3.18,3.18"/></g><path class="cls-5" d="M110.37,133h-6.88v-4.32h18.72V133h-6.87V154.8h-5Z"/><path class="cls-5" d="M128.13,155.16c-5,0-8-3.56-8-9.75s3-9.83,7.92-9.83,7.81,3.46,7.81,9.58c0,.32,0,.64,0,1h-11.3c0,3.56,1.37,5.36,4,5.36,1.7,0,2.81-.76,3.86-2.41l3.27,2C134.21,153.76,131.62,155.16,128.13,155.16Zm3.35-12.24c0-2.52-1.3-4-3.42-4s-3.28,1.44-3.46,4Z"/><path class="cls-5" d="M148.68,153.15a9.3,9.3,0,0,1-5.61,1.87c-3.17,0-5-1.91-5-5,0-4.21,3.49-6.44,10.69-7.34v-1.48c0-1.37-.94-2.16-2.66-2.16a4.91,4.91,0,0,0-4.14,2.16l-3-1.91a8,8,0,0,1,7.24-3.67c4.43,0,6.91,2.12,6.91,5.58v11.09a16.21,16.21,0,0,0,.29,2.55h-4.25Zm-6.26-3.53a1.83,1.83,0,0,0,2,2,5.93,5.93,0,0,0,4.14-2v-4C144.4,146.2,142.42,147.39,142.42,149.62Z"/><path class="cls-5" d="M157.72,135.94h4.1v2.2a6.78,6.78,0,0,1,5.33-2.56,4.71,4.71,0,0,1,4.65,2.81,8.08,8.08,0,0,1,6.08-2.81c3.13,0,5,1.84,5,4.79V154.8h-4.47v-13c0-1.62-.72-2.56-2-2.56a5.56,5.56,0,0,0-4,1.95v13.6h-4.35V142.31c0-2.05-.58-3-2-3a5.27,5.27,0,0,0-4,1.94V154.8h-4.43Z"/></svg>